<?xml version="1.0" encoding="us-ascii" standalone="no"?><svg xmlns="http://www.w3.org/2000/svg" xmlns:xlink="http://www.w3.org/1999/xlink" contentStyleType="text/css" height="539px" preserveAspectRatio="none" style="width:992px;height:539px;background:#FFFFFF;" version="1.1" viewBox="0 0 992 539" width="992px" zoomAndPan="magnify"><defs/><g><text fill="#000000" font-family="sans-serif" font-size="14" font-weight="bold" lengthAdjust="spacing" textLength="89" x="444.5" y="22.9951">Gogo-Form</text><!--cluster Domain--><g id="cluster_Domain"><path d="M8.5,43.2969 L70.5,43.2969 A3.75,3.75 0 0 1 73,45.7969 L80,65.5938 L982.5,65.5938 A2.5,2.5 0 0 1 985,68.0938 L985,409.7969 A2.5,2.5 0 0 1 982.5,412.2969 L8.5,412.2969 A2.5,2.5 0 0 1 6,409.7969 L6,45.7969 A2.5,2.5 0 0 1 8.5,43.2969 " fill="none" style="stroke:#000000;stroke-width:1.5;"/><line style="stroke:#000000;stroke-width:1.5;" x1="6" x2="80" y1="65.5938" y2="65.5938"/><text fill="#000000" font-family="sans-serif" font-size="14" font-weight="bold" lengthAdjust="spacing" textLength="61" x="10" y="58.292">Domain</text></g><!--cluster App--><g id="cluster_App"><path d="M183.5,436.2969 L215.5,436.2969 A3.75,3.75 0 0 1 218,438.7969 L225,458.5938 L896.5,458.5938 A2.5,2.5 0 0 1 899,461.0938 L899,529.7969 A2.5,2.5 0 0 1 896.5,532.2969 L183.5,532.2969 A2.5,2.5 0 0 1 181,529.7969 L181,438.7969 A2.5,2.5 0 0 1 183.5,436.2969 " fill="none" style="stroke:#000000;stroke-width:1.5;"/><line style="stroke:#000000;stroke-width:1.5;" x1="181" x2="225" y1="458.5938" y2="458.5938"/><text fill="#000000" font-family="sans-serif" font-size="14" font-weight="bold" lengthAdjust="spacing" textLength="31" x="185" y="451.292">App</text></g><!--class Question--><g id="elem_Question"><rect codeLine="5" fill="#F1F1F1" height="96.8906" id="Question" rx="2.5" ry="2.5" style="stroke:#181818;stroke-width:0.5;" width="125" x="22.5" y="283.2969"/><ellipse cx="50.55" cy="299.2969" fill="#F1F1F1" rx="11" ry="11" style="stroke:#181818;stroke-width:1.0;"/><path d="M54.3313,295.2656 C54.3313,294.8281 54.3156,294.6875 54.2219,294.5313 C54.0813,294.2969 53.8,294.1406 53.5031,294.1406 C53.1594,294.1406 53.0188,294.2813 52.8469,294.7031 C52.2531,294.3281 51.5031,294.1406 50.6281,294.1406 C48.5188,294.1406 46.9406,295.4375 46.9406,297.1563 C46.9406,298.125 47.4719,299.0313 48.3313,299.5156 C48.8781,299.8281 49.425,300 50.5344,300.1875 C51.6906,300.3906 51.9563,300.4531 52.3156,300.6406 C52.6906,300.8438 52.925,301.1875 52.925,301.5469 C52.925,302.2813 51.9406,302.8281 50.6906,302.8281 C49.5656,302.8281 48.4875,302.3438 48.3156,301.7344 C48.1906,301.2656 48.1906,301.2656 48.0656,301.1563 C47.9094,301 47.6906,300.9063 47.4563,300.9063 C47.175,300.9063 46.925,301.0313 46.7531,301.25 C46.6438,301.4219 46.5969,301.6094 46.5969,302.0313 L46.5969,303.1563 C46.5969,303.9219 46.8781,304.2813 47.4719,304.2813 C47.7375,304.2813 47.8625,304.2188 48.1438,303.875 C48.9875,304.3125 49.8781,304.5313 50.8,304.5313 C53.1281,304.5313 54.6906,303.3438 54.6906,301.5781 C54.6906,300.6875 54.3781,300 53.6906,299.4531 C53.1594,299.0313 52.5188,298.7813 51.0344,298.5156 C49.7688,298.2813 49.675,298.25 49.3469,298.0781 C48.9719,297.8906 48.7063,297.5 48.7063,297.1406 C48.7063,296.4063 49.5656,295.8438 50.6281,295.8438 C51.6906,295.8438 52.5031,296.3125 52.6594,296.9844 C52.7688,297.5313 52.7688,297.5313 52.8938,297.6719 C53.0344,297.7969 53.2688,297.9063 53.5031,297.9063 C53.7688,297.9063 54.0188,297.7656 54.1906,297.5469 C54.3,297.375 54.3313,297.2344 54.3313,296.7656 L54.3313,295.2656 Z " fill="#000000"/><text fill="#000000" font-family="sans-serif" font-size="14" lengthAdjust="spacing" textLength="64" x="67.45" y="304.1436">Question</text><line style="stroke:#181818;stroke-width:0.5;" x1="23.5" x2="146.5" y1="315.2969" y2="315.2969"/><text fill="#000000" font-family="sans-serif" font-size="14" lengthAdjust="spacing" textLength="79" x="28.5" y="332.292">string Text</text><text fill="#000000" font-family="sans-serif" font-size="14" lengthAdjust="spacing" textLength="82" x="28.5" y="348.5889">string Type</text><text fill="#000000" font-family="sans-serif" font-size="14" lengthAdjust="spacing" textLength="113" x="28.5" y="364.8857">[]string Options</text><line style="stroke:#181818;stroke-width:0.5;" x1="23.5" x2="146.5" y1="372.1875" y2="372.1875"/></g><!--class Form--><g id="elem_Form"><rect codeLine="11" fill="#F1F1F1" height="113.1875" id="Form" rx="2.5" ry="2.5" style="stroke:#181818;stroke-width:0.5;" width="161" x="182.5" y="275.2969"/><ellipse cx="240.25" cy="291.2969" fill="#F1F1F1" rx="11" ry="11" style="stroke:#181818;stroke-width:1.0;"/><path d="M244.0313,287.2656 C244.0313,286.8281 244.0156,286.6875 243.9219,286.5313 C243.7813,286.2969 243.5,286.1406 243.2031,286.1406 C242.8594,286.1406 242.7188,286.2813 242.5469,286.7031 C241.9531,286.3281 241.2031,286.1406 240.3281,286.1406 C238.2188,286.1406 236.6406,287.4375 236.6406,289.1563 C236.6406,290.125 237.1719,291.0313 238.0313,291.5156 C238.5781,291.8281 239.125,292 240.2344,292.1875 C241.3906,292.3906 241.6563,292.4531 242.0156,292.6406 C242.3906,292.8438 242.625,293.1875 242.625,293.5469 C242.625,294.2813 241.6406,294.8281 240.3906,294.8281 C239.2656,294.8281 238.1875,294.3438 238.0156,293.7344 C237.8906,293.2656 237.8906,293.2656 237.7656,293.1563 C237.6094,293 237.3906,292.9063 237.1563,292.9063 C236.875,292.9063 236.625,293.0313 236.4531,293.25 C236.3438,293.4219 236.2969,293.6094 236.2969,294.0313 L236.2969,295.1563 C236.2969,295.9219 236.5781,296.2813 237.1719,296.2813 C237.4375,296.2813 237.5625,296.2188 237.8438,295.875 C238.6875,296.3125 239.5781,296.5313 240.5,296.5313 C242.8281,296.5313 244.3906,295.3438 244.3906,293.5781 C244.3906,292.6875 244.0781,292 243.3906,291.4531 C242.8594,291.0313 242.2188,290.7813 240.7344,290.5156 C239.4688,290.2813 239.375,290.25 239.0469,290.0781 C238.6719,289.8906 238.4063,289.5 238.4063,289.1406 C238.4063,288.4063 239.2656,287.8438 240.3281,287.8438 C241.3906,287.8438 242.2031,288.3125 242.3594,288.9844 C242.4688,289.5313 242.4688,289.5313 242.5938,289.6719 C242.7344,289.7969 242.9688,289.9063 243.2031,289.9063 C243.4688,289.9063 243.7188,289.7656 243.8906,289.5469 C244,289.375 244.0313,289.2344 244.0313,288.7656 L244.0313,287.2656 Z " fill="#000000"/><text fill="#000000" font-family="sans-serif" font-size="14" lengthAdjust="spacing" textLength="37" x="260.75" y="296.1436">Form</text><line style="stroke:#181818;stroke-width:0.5;" x1="183.5" x2="342.5" y1="307.2969" y2="307.2969"/><text fill="#000000" font-family="sans-serif" font-size="14" lengthAdjust="spacing" textLength="61" x="188.5" y="324.292">string ID</text><text fill="#000000" font-family="sans-serif" font-size="14" lengthAdjust="spacing" textLength="87" x="188.5" y="340.5889">string Name</text><text fill="#000000" font-family="sans-serif" font-size="14" lengthAdjust="spacing" textLength="130" x="188.5" y="356.8857">string Description</text><text fill="#000000" font-family="sans-serif" font-size="14" lengthAdjust="spacing" textLength="149" x="188.5" y="373.1826">[]Question Questions</text><line style="stroke:#181818;stroke-width:0.5;" x1="183.5" x2="342.5" y1="380.4844" y2="380.4844"/></g><!--class Answer--><g id="elem_Answer"><rect codeLine="19" fill="#F1F1F1" height="129.4844" id="Answer" rx="2.5" ry="2.5" style="stroke:#181818;stroke-width:0.5;" width="290" x="379" y="267.2969"/><ellipse cx="493.75" cy="283.2969" fill="#F1F1F1" rx="11" ry="11" style="stroke:#181818;stroke-width:1.0;"/><path d="M497.5313,279.2656 C497.5313,278.8281 497.5156,278.6875 497.4219,278.5313 C497.2813,278.2969 497,278.1406 496.7031,278.1406 C496.3594,278.1406 496.2188,278.2813 496.0469,278.7031 C495.4531,278.3281 494.7031,278.1406 493.8281,278.1406 C491.7188,278.1406 490.1406,279.4375 490.1406,281.1563 C490.1406,282.125 490.6719,283.0313 491.5313,283.5156 C492.0781,283.8281 492.625,284 493.7344,284.1875 C494.8906,284.3906 495.1563,284.4531 495.5156,284.6406 C495.8906,284.8438 496.125,285.1875 496.125,285.5469 C496.125,286.2813 495.1406,286.8281 493.8906,286.8281 C492.7656,286.8281 491.6875,286.3438 491.5156,285.7344 C491.3906,285.2656 491.3906,285.2656 491.2656,285.1563 C491.1094,285 490.8906,284.9063 490.6563,284.9063 C490.375,284.9063 490.125,285.0313 489.9531,285.25 C489.8438,285.4219 489.7969,285.6094 489.7969,286.0313 L489.7969,287.1563 C489.7969,287.9219 490.0781,288.2813 490.6719,288.2813 C490.9375,288.2813 491.0625,288.2188 491.3438,287.875 C492.1875,288.3125 493.0781,288.5313 494,288.5313 C496.3281,288.5313 497.8906,287.3438 497.8906,285.5781 C497.8906,284.6875 497.5781,284 496.8906,283.4531 C496.3594,283.0313 495.7188,282.7813 494.2344,282.5156 C492.9688,282.2813 492.875,282.25 492.5469,282.0781 C492.1719,281.8906 491.9063,281.5 491.9063,281.1406 C491.9063,280.4063 492.7656,279.8438 493.8281,279.8438 C494.8906,279.8438 495.7031,280.3125 495.8594,280.9844 C495.9688,281.5313 495.9688,281.5313 496.0938,281.6719 C496.2344,281.7969 496.4688,281.9063 496.7031,281.9063 C496.9688,281.9063 497.2188,281.7656 497.3906,281.5469 C497.5,281.375 497.5313,281.2344 497.5313,280.7656 L497.5313,279.2656 Z " fill="#000000"/><text fill="#000000" font-family="sans-serif" font-size="14" lengthAdjust="spacing" textLength="52" x="514.25" y="288.1436">Answer</text><line style="stroke:#181818;stroke-width:0.5;" x1="380" x2="668" y1="299.2969" y2="299.2969"/><text fill="#000000" font-family="sans-serif" font-size="14" lengthAdjust="spacing" textLength="61" x="385" y="316.292">string ID</text><text fill="#000000" font-family="sans-serif" font-size="14" lengthAdjust="spacing" textLength="98" x="385" y="332.5889">string FormID</text><text fill="#000000" font-family="sans-serif" font-size="14" lengthAdjust="spacing" textLength="166" x="385" y="348.8857">time.Time AnsweredAt</text><text fill="#000000" font-family="sans-serif" font-size="14" lengthAdjust="spacing" textLength="98" x="385" y="365.1826">[]any Answers</text><line style="stroke:#181818;stroke-width:1.0;" x1="380" x2="668" y1="372.4844" y2="372.4844"/><text fill="#000000" font-family="sans-serif" font-size="14" lengthAdjust="spacing" textLength="278" x="385" y="389.4795">bool CompatibleWithForm(form Form)</text></g><!--class FormRepository--><g id="elem_FormRepository"><rect codeLine="28" fill="#F1F1F1" height="129.4844" id="FormRepository" rx="2.5" ry="2.5" style="stroke:#181818;stroke-width:0.5;" width="468" x="22" y="78.2969"/><ellipse cx="195.25" cy="94.2969" fill="#B4A7E5" rx="11" ry="11" style="stroke:#181818;stroke-width:1.0;"/><path d="M196.2031,91.0781 L197.9219,91.0781 C198.3125,91.0781 198.5,91.0469 198.625,90.9688 C198.8906,90.8125 199.0313,90.5313 199.0313,90.2344 C199.0313,89.9688 198.9219,89.7031 198.6875,89.5313 C198.5156,89.4219 198.375,89.3906 197.9219,89.3906 L192.7813,89.3906 C192.3438,89.3906 192.2188,89.4063 192.0625,89.5 C191.8125,89.6563 191.6563,89.9531 191.6563,90.2344 C191.6563,90.5156 191.7969,90.7656 192.0156,90.9375 C192.1719,91.0469 192.3594,91.0781 192.7813,91.0781 L194.5,91.0781 L194.5,97.5938 L192.7813,97.5938 C192.3438,97.5938 192.2188,97.6094 192.0625,97.7188 C191.8125,97.875 191.6563,98.1563 191.6563,98.4531 C191.6563,98.7031 191.7969,98.9688 192.0156,99.125 C192.1719,99.25 192.375,99.2969 192.7813,99.2969 L197.9219,99.2969 C198.6719,99.2969 199.0313,99.0156 199.0313,98.4531 C199.0313,98.1719 198.9219,97.9219 198.6875,97.75 C198.5156,97.625 198.375,97.5938 197.9219,97.5938 L196.2031,97.5938 L196.2031,91.0781 Z " fill="#000000"/><text fill="#000000" font-family="sans-serif" font-size="14" font-style="italic" lengthAdjust="spacing" textLength="113" x="215.75" y="99.1436">FormRepository</text><line style="stroke:#181818;stroke-width:0.5;" x1="23" x2="489" y1="110.2969" y2="110.2969"/><line style="stroke:#181818;stroke-width:0.5;" x1="23" x2="489" y1="118.2969" y2="118.2969"/><text fill="#000000" font-family="sans-serif" font-size="14" lengthAdjust="spacing" textLength="386" x="28" y="135.292">(Form, error) Create(ctx context.Context, form Form)</text><text fill="#000000" font-family="sans-serif" font-size="14" lengthAdjust="spacing" textLength="402" x="28" y="151.5889">([]Form, error) GetAll(ctx context.Context, name string)</text><text fill="#000000" font-family="sans-serif" font-size="14" lengthAdjust="spacing" textLength="376" x="28" y="167.8857">(Form, error) GetOne(ctx context.Context, id string)</text><text fill="#000000" font-family="sans-serif" font-size="14" lengthAdjust="spacing" textLength="456" x="28" y="184.1826">(Form, error) Update(ctx context.Context, form Form, id string)</text><text fill="#000000" font-family="sans-serif" font-size="14" lengthAdjust="spacing" textLength="314" x="28" y="200.4795">error Delete(ctx context.Context, id string)</text></g><!--class AnswerRepository--><g id="elem_AnswerRepository"><rect codeLine="36" fill="#F1F1F1" height="113.1875" id="AnswerRepository" rx="2.5" ry="2.5" style="stroke:#181818;stroke-width:0.5;" width="443" x="525.5" y="86.2969"/><ellipse cx="678.75" cy="102.2969" fill="#B4A7E5" rx="11" ry="11" style="stroke:#181818;stroke-width:1.0;"/><path d="M679.7031,99.0781 L681.4219,99.0781 C681.8125,99.0781 682,99.0469 682.125,98.9688 C682.3906,98.8125 682.5313,98.5313 682.5313,98.2344 C682.5313,97.9688 682.4219,97.7031 682.1875,97.5313 C682.0156,97.4219 681.875,97.3906 681.4219,97.3906 L676.2813,97.3906 C675.8438,97.3906 675.7188,97.4063 675.5625,97.5 C675.3125,97.6563 675.1563,97.9531 675.1563,98.2344 C675.1563,98.5156 675.2969,98.7656 675.5156,98.9375 C675.6719,99.0469 675.8594,99.0781 676.2813,99.0781 L678,99.0781 L678,105.5938 L676.2813,105.5938 C675.8438,105.5938 675.7188,105.6094 675.5625,105.7188 C675.3125,105.875 675.1563,106.1563 675.1563,106.4531 C675.1563,106.7031 675.2969,106.9688 675.5156,107.125 C675.6719,107.25 675.875,107.2969 676.2813,107.2969 L681.4219,107.2969 C682.1719,107.2969 682.5313,107.0156 682.5313,106.4531 C682.5313,106.1719 682.4219,105.9219 682.1875,105.75 C682.0156,105.625 681.875,105.5938 681.4219,105.5938 L679.7031,105.5938 L679.7031,99.0781 Z " fill="#000000"/><text fill="#000000" font-family="sans-serif" font-size="14" font-style="italic" lengthAdjust="spacing" textLength="128" x="699.25" y="107.1436">AnswerRepository</text><line style="stroke:#181818;stroke-width:0.5;" x1="526.5" x2="967.5" y1="118.2969" y2="118.2969"/><line style="stroke:#181818;stroke-width:0.5;" x1="526.5" x2="967.5" y1="126.2969" y2="126.2969"/><text fill="#000000" font-family="sans-serif" font-size="14" lengthAdjust="spacing" textLength="431" x="531.5" y="143.292">(Answer, error) Create(ctx context.Context, answer Answer)</text><text fill="#000000" font-family="sans-serif" font-size="14" lengthAdjust="spacing" textLength="425" x="531.5" y="159.5889">([]Answer, error) GetAll(ctx context.Context, formId string)</text><text fill="#000000" font-family="sans-serif" font-size="14" lengthAdjust="spacing" textLength="391" x="531.5" y="175.8857">(Answer, error) GetOne(ctx context.Context, id string)</text><text fill="#000000" font-family="sans-serif" font-size="14" lengthAdjust="spacing" textLength="314" x="531.5" y="192.1826">error Delete(ctx context.Context, id string)</text></g><!--entity AnswerModel--><g id="elem_AnswerModel"><path d="M457.5,481.2969 C457.5,471.2969 515,471.2969 515,471.2969 C515,471.2969 572.5,471.2969 572.5,481.2969 L572.5,506.5938 C572.5,516.5938 515,516.5938 515,516.5938 C515,516.5938 457.5,516.5938 457.5,506.5938 L457.5,481.2969 " fill="#C8E6C9" style="stroke:#181818;stroke-width:0.5;"/><path d="M457.5,481.2969 C457.5,491.2969 515,491.2969 515,491.2969 C515,491.2969 572.5,491.2969 572.5,481.2969 " fill="none" style="stroke:#181818;stroke-width:0.5;"/><text fill="#000000" font-family="sans-serif" font-size="14" lengthAdjust="spacing" textLength="95" x="467.5" y="508.292">AnswerModel</text></g><!--entity FormModel--><g id="elem_FormModel"><path d="M322,481.2969 C322,471.2969 372,471.2969 372,471.2969 C372,471.2969 422,471.2969 422,481.2969 L422,506.5938 C422,516.5938 372,516.5938 372,516.5938 C372,516.5938 322,516.5938 322,506.5938 L322,481.2969 " fill="#C8E6C9" style="stroke:#181818;stroke-width:0.5;"/><path d="M322,481.2969 C322,491.2969 372,491.2969 372,491.2969 C372,491.2969 422,491.2969 422,481.2969 " fill="none" style="stroke:#181818;stroke-width:0.5;"/><text fill="#000000" font-family="sans-serif" font-size="14" lengthAdjust="spacing" textLength="80" x="332" y="508.292">FormModel</text></g><!--entity MongoDB--><g id="elem_MongoDB"><path d="M197.5,481.2969 C197.5,471.2969 242,471.2969 242,471.2969 C242,471.2969 286.5,471.2969 286.5,481.2969 L286.5,506.5938 C286.5,516.5938 242,516.5938 242,516.5938 C242,516.5938 197.5,516.5938 197.5,506.5938 L197.5,481.2969 " fill="#81C784" style="stroke:#181818;stroke-width:0.5;"/><path d="M197.5,481.2969 C197.5,491.2969 242,491.2969 242,491.2969 C242,491.2969 286.5,491.2969 286.5,481.2969 " fill="none" style="stroke:#181818;stroke-width:0.5;"/><text fill="#000000" font-family="sans-serif" font-size="14" lengthAdjust="spacing" textLength="69" x="207.5" y="508.292">MongoDB</text></g><!--entity AnswerHandler--><g id="elem_AnswerHandler"><rect fill="#E1BEE7" height="32.2969" rx="2.5" ry="2.5" style="stroke:#181818;stroke-width:0.5;" width="123" x="759.5" y="479.7969"/><rect fill="#E1BEE7" height="32.2969" rx="2.5" ry="2.5" style="stroke:#181818;stroke-width:0.5;" width="123" x="755.5" y="475.7969"/><text fill="#000000" font-family="sans-serif" font-size="14" lengthAdjust="spacing" textLength="107" x="763.5" y="496.792">AnswerHandler</text></g><!--entity FormHandler--><g id="elem_FormHandler"><rect fill="#E1BEE7" height="32.2969" rx="2.5" ry="2.5" style="stroke:#181818;stroke-width:0.5;" width="108" x="612" y="479.7969"/><rect fill="#E1BEE7" height="32.2969" rx="2.5" ry="2.5" style="stroke:#181818;stroke-width:0.5;" width="108" x="608" y="475.7969"/><text fill="#000000" font-family="sans-serif" font-size="14" lengthAdjust="spacing" textLength="92" x="616" y="496.792">FormHandler</text></g><!--reverse link FormRepository to Form--><g id="link_FormRepository_Form"><path codeLine="53" d="M258.574,212.5719 C259.347,233.1999 260.184,255.5579 260.92,275.2209 " fill="none" id="FormRepository-backto-Form" style="stroke:#181818;stroke-width:1.0;"/><polygon fill="#181818" points="258.38,207.3679,254.7196,216.5113,258.5671,212.3644,262.714,216.2119,258.38,207.3679" style="stroke:#181818;stroke-width:1.0;"/></g><!--reverse link AnswerRepository to Answer--><g id="link_AnswerRepository_Answer"><path codeLine="54" d="M676.795,202.6679 C652.318,223.1939 624.749,246.3119 599.836,267.2039 " fill="none" id="AnswerRepository-backto-Answer" style="stroke:#181818;stroke-width:1.0;"/><polygon fill="#181818" points="680.696,199.3969,671.2296,202.1148,676.8647,202.6096,676.3699,208.2448,680.696,199.3969" style="stroke:#181818;stroke-width:1.0;"/></g><!--reverse link Question to Form--><g id="link_Question_Form"><path codeLine="56" d="M160.597,331.7969 C167.83,331.7969 175.062,331.7969 182.295,331.7969 " fill="none" id="Question-backto-Form" style="stroke:#181818;stroke-width:1.0;"/><polygon fill="none" points="147.578,331.7969,153.578,335.7969,159.578,331.7969,153.578,327.7969,147.578,331.7969" style="stroke:#181818;stroke-width:1.0;"/></g><!--reverse link Form to Answer--><g id="link_Form_Answer"><path codeLine="57" d="M356.76,331.7969 C364.103,331.7969 371.446,331.7969 378.788,331.7969 " fill="none" id="Form-backto-Answer" style="stroke:#181818;stroke-width:1.0;"/><polygon fill="none" points="343.543,331.7969,349.543,335.7969,355.543,331.7969,349.543,327.7969,343.543,331.7969" style="stroke:#181818;stroke-width:1.0;"/></g><!--reverse link FormRepository to FormHandler--><g id="link_FormRepository_FormHandler"><path codeLine="59" d="M502.896,208.2729 C595.122,233.5259 679.41,258.5479 686,267.2969 C733.923,330.9219 692.265,434.9869 672.76,475.7038 " fill="none" id="FormRepository-backto-FormHandler" style="stroke:#181818;stroke-width:1.0;"/><polygon fill="none" points="490.135,204.7909,494.8701,210.2295,501.7116,207.9504,496.9765,202.5118,490.135,204.7909" style="stroke:#181818;stroke-width:1.0;"/></g><!--reverse link AnswerRepository to AnswerHandler--><g id="link_AnswerRepository_AnswerHandler"><path codeLine="60" d="M761.128,212.2769 C778.163,294.8499 805.721,428.4289 815.456,475.6183 " fill="none" id="AnswerRepository-backto-AnswerHandler" style="stroke:#181818;stroke-width:1.0;"/><polygon fill="none" points="758.488,199.4829,755.7824,206.1672,760.9119,211.2355,763.6175,204.5513,758.488,199.4829" style="stroke:#181818;stroke-width:1.0;"/></g><!--link MongoDB to FormModel--><g id="link_MongoDB_FormModel"><path codeLine="62" d="M286.688,493.7969 C298.351,493.7969 310.015,493.7969 321.679,493.7969 " fill="none" id="MongoDB-FormModel" style="stroke:#181818;stroke-width:1.0;stroke-dasharray:7.0,7.0;"/></g><!--link MongoDB to AnswerModel--><g id="link_MongoDB_AnswerModel"><path codeLine="63" d="M257.907,471.0731 C269.165,456.6812 285.507,438.8549 304,428.2969 C318.549,419.9909 387.531,420.4639 421.5,424.2969 C429.428,425.1919 431.88,424.6979 439,428.2969 C460.142,438.9839 480.27,456.8015 494.494,471.1577 " fill="none" id="MongoDB-AnswerModel" style="stroke:#181818;stroke-width:1.0;stroke-dasharray:7.0,7.0;"/></g><!--reverse link Form to FormModel--><g id="link_Form_FormModel"><path codeLine="65" d="M303.8,392.6869 C322.518,420.1619 343.541,451.022 357.234,471.1224 " fill="none" id="Form-backto-FormModel" style="stroke:#181818;stroke-width:1.0;"/><polygon fill="#181818" points="300.817,388.3079,302.5803,397.9976,303.6329,392.4396,309.1909,393.4922,300.817,388.3079" style="stroke:#181818;stroke-width:1.0;"/></g><!--reverse link Answer to AnswerModel--><g id="link_Answer_AnswerModel"><path codeLine="66" d="M520.136,401.4859 C518.725,426.5699 517.229,453.1675 516.218,471.1458 " fill="none" id="Answer-backto-AnswerModel" style="stroke:#181818;stroke-width:1.0;"/><polygon fill="#181818" points="520.417,396.4929,515.9192,405.2547,520.137,401.485,523.9066,405.7028,520.417,396.4929" style="stroke:#181818;stroke-width:1.0;"/></g><!--SRC=[dLHDQnin43r7lqBWYmrPGw0q3lHYhzqqXoGa9FHWJ95t9wweLhD82h49-U_Hr-vwTrtNr0TRUZFptkYD9IO4llqg-9RB3J7S2A3NkC7aEwg2a99bVzW6w1mBnYLz9zH-j56lcQ4Fhw0Dnmezix3be4-mDMrWLuBR1t2vYl1zwOgrHp_8Fh6Jxf3Up6bhVySAQ05pq9dYdhBIgVkh5feS49jA_GOgodaqwBNthgKQCxo0yPFzYiMGJqqCBLTCxYAi8vOaSR5653J5ecI6hmNyvEQtuns-kFEwrMY_FouDg1UMWGyzGecQ6rIxofcXWyyfA8LgH5C5pC0mCrkQeQtScd4QVizfX_zik5orQg_1J8KuN2kjqT64qI5TMtil_wBBysELpsN-xuxx9BxQZbk0EKssPsUOpW53G-0aIrduruIAnjOEmp5ZtH5lkWRrwqyszpzy-MZkzxGiemrsA6pDT6NJBUOWw22TBBwcL-q4DvyZuLkK6vpFw61oaLvEleGfP2W4PFuoHe4VJER2MZbONCmMYyjUbbFfvjZ6EtVYMvBuJD8Rhei4a93wHS2OxLyQR18wh1XPetwV76loAeLKnnut_knXUwO6jRhpWCNNg6dQmvy0]--></g></svg>